<svg xmlns="http://www.w3.org/2000/svg" viewBox="0 0 47.58 6.28"><defs><style>.cls-1{fill:#e41d1a;}.cls-2{fill:#048837;}.cls-3{fill:#438dcc;}.cls-4{fill:#1d1d1b;}</style></defs><g id="Capa_1" data-name="Capa 1"><path class="cls-1" d="M25.27,22a1.11,1.11,0,1,1-1.1,1.1,1.11,1.11,0,0,1,1.1-1.1m0-.74a1.85,1.85,0,1,0,1.85,1.84,1.85,1.85,0,0,0-1.85-1.84Z" transform="translate(-1.23 -19.98)"/></g><g id="Capa_4" data-name="Capa 4"><path class="cls-2" d="M14.25,22.49l0,.06,1,1.7H13.2l.51-.86.54-.9m0-1.24-2.18,3.63h4.31l-2.13-3.63Z" transform="translate(-1.23 -19.98)"/></g><g id="Capa_3" data-name="Capa 3"><path class="cls-3" d="M37,21.78,38.27,23,37,24.24,35.81,23,37,21.78m0-.88L34.93,23,37,25.12,39.15,23,37,20.9Z" transform="translate(-1.23 -19.98)"/></g><g id="Capa_6" data-name="Capa 6"><path class="cls-4" d="M4.53,21.61a1,1,0,0,0-.14-.31.77.77,0,0,0-.22-.22,1,1,0,0,0-.29-.15,1.38,1.38,0,0,0-.37-.05,1.13,1.13,0,0,0-.65.19,1.14,1.14,0,0,0-.43.53,2,2,0,0,0-.16.86,2.17,2.17,0,0,0,.15.86,1.2,1.2,0,0,0,.44.54,1.14,1.14,0,0,0,.66.19,1.37,1.37,0,0,0,.6-.12.94.94,0,0,0,.38-.36A1.12,1.12,0,0,0,4.63,23l.21,0H3.59V22.3h2v.61A2.1,2.1,0,0,1,5.35,24a1.83,1.83,0,0,1-.75.71A2.33,2.33,0,0,1,3.52,25a2.26,2.26,0,0,1-1.2-.31,2.05,2.05,0,0,1-.8-.85,2.93,2.93,0,0,1-.29-1.33,3.12,3.12,0,0,1,.17-1,2.49,2.49,0,0,1,.48-.79,2.36,2.36,0,0,1,.72-.49A2.44,2.44,0,0,1,3.5,20a2.33,2.33,0,0,1,.76.12,2.28,2.28,0,0,1,.64.33,2,2,0,0,1,.45.52,1.84,1.84,0,0,1,.22.66Z" transform="translate(-1.23 -19.98)"/><path class="cls-4" d="M8,25a1.85,1.85,0,0,1-1-.23,1.5,1.5,0,0,1-.62-.65,2.07,2.07,0,0,1-.22-1,2.09,2.09,0,0,1,.22-1,1.62,1.62,0,0,1,.61-.66A1.89,1.89,0,0,1,8,21.21a2,2,0,0,1,.67.11,1.52,1.52,0,0,1,.55.35,1.5,1.5,0,0,1,.36.57,2.22,2.22,0,0,1,.13.81v.28H6.62v-.62H8.74a.8.8,0,0,0-.09-.39.72.72,0,0,0-.26-.26A.71.71,0,0,0,8,22a.8.8,0,0,0-.41.1.83.83,0,0,0-.27.29.71.71,0,0,0-.1.39v.59a1,1,0,0,0,.1.47.68.68,0,0,0,.28.3.9.9,0,0,0,.44.11,1.06,1.06,0,0,0,.31-.05A.72.72,0,0,0,8.59,24a.76.76,0,0,0,.15-.23l.93.06a1.23,1.23,0,0,1-.29.58,1.41,1.41,0,0,1-.56.39A2,2,0,0,1,8,25Z" transform="translate(-1.23 -19.98)"/><path class="cls-4" d="M10.35,24.89V21.25h1v.64h0a.85.85,0,0,1,.33-.51.88.88,0,0,1,.54-.18h.16l.16,0v.89l-.2,0h-.23a.71.71,0,0,0-.67.36.71.71,0,0,0-.1.39v2.06Z" transform="translate(-1.23 -19.98)"/><path class="cls-4" d="M16.84,24.89V21.25h1v.64h0a.85.85,0,0,1,.33-.51.88.88,0,0,1,.54-.18h.16l.16,0v.89l-.2,0h-.23a.71.71,0,0,0-.67.36.71.71,0,0,0-.1.39v2.06Z" transform="translate(-1.23 -19.98)"/><path class="cls-4" d="M20.73,25a1.29,1.29,0,0,1-.74-.22,1.33,1.33,0,0,1-.53-.63,2.26,2.26,0,0,1-.2-1,2.41,2.41,0,0,1,.2-1,1.47,1.47,0,0,1,.54-.63,1.43,1.43,0,0,1,.73-.2,1.08,1.08,0,0,1,.51.1.87.87,0,0,1,.33.26,1.52,1.52,0,0,1,.2.29h0V20h1v4.85h-1v-.58h0a1.74,1.74,0,0,1-.2.3,1,1,0,0,1-.34.24A1.06,1.06,0,0,1,20.73,25Zm.32-.8a.66.66,0,0,0,.42-.14.85.85,0,0,0,.26-.37,1.62,1.62,0,0,0,.09-.57,1.6,1.6,0,0,0-.09-.56.85.85,0,0,0-.26-.37.66.66,0,0,0-.42-.13.68.68,0,0,0-.42.13.87.87,0,0,0-.25.38,1.55,1.55,0,0,0-.09.55,1.6,1.6,0,0,0,.09.56.81.81,0,0,0,.26.38A.64.64,0,0,0,21.05,24.15Z" transform="translate(-1.23 -19.98)"/><path class="cls-4" d="M29.28,20h1.27l1.33,3.26h.06L33.28,20h1.26v4.85h-1V21.73h0l-1.25,3.14h-.68l-1.25-3.15h0v3.17h-1Z" transform="translate(-1.23 -19.98)"/><path class="cls-4" d="M40.46,20v4.85h-1V20Z" transform="translate(-1.23 -19.98)"/><path class="cls-4" d="M41.27,26.25v-5h1v.61h.05a1.1,1.1,0,0,1,.19-.29.87.87,0,0,1,.33-.26,1.13,1.13,0,0,1,.51-.1,1.35,1.35,0,0,1,1.27.83,2.27,2.27,0,0,1,.2,1,2.41,2.41,0,0,1-.19,1,1.45,1.45,0,0,1-.53.63,1.34,1.34,0,0,1-.75.22,1.09,1.09,0,0,1-.5-.1,1,1,0,0,1-.34-.24,1.25,1.25,0,0,1-.19-.3h0v1.94Zm1-3.18a1.62,1.62,0,0,0,.09.57.85.85,0,0,0,.26.37.68.68,0,0,0,.42.14.64.64,0,0,0,.41-.14.81.81,0,0,0,.26-.38,1.6,1.6,0,0,0,.09-.56,1.82,1.82,0,0,0-.08-.55.89.89,0,0,0-.26-.38A.68.68,0,0,0,43,22a.66.66,0,0,0-.42.13.85.85,0,0,0-.26.37A1.6,1.6,0,0,0,42.25,23.07Z" transform="translate(-1.23 -19.98)"/><path class="cls-4" d="M47.14,25a1.88,1.88,0,0,1-1-.23,1.62,1.62,0,0,1-.62-.65,2.19,2.19,0,0,1-.21-1,2.22,2.22,0,0,1,.21-1,1.64,1.64,0,0,1,.62-.66,1.83,1.83,0,0,1,.93-.23,2.09,2.09,0,0,1,.67.11,1.4,1.4,0,0,1,.54.35,1.52,1.52,0,0,1,.37.57,2.46,2.46,0,0,1,.13.81v.28H45.74v-.62h2.12a.71.71,0,0,0-.1-.39.65.65,0,0,0-.26-.26.7.7,0,0,0-.38-.1.78.78,0,0,0-.41.1.86.86,0,0,0-.28.29.81.81,0,0,0-.1.39v.59a1.12,1.12,0,0,0,.1.47.7.7,0,0,0,.29.3.87.87,0,0,0,.44.11.94.94,0,0,0,.3-.05A.57.57,0,0,0,47.7,24a.51.51,0,0,0,.15-.23l.94.06a1.33,1.33,0,0,1-.29.58,1.45,1.45,0,0,1-.57.39A2,2,0,0,1,47.14,25Z" transform="translate(-1.23 -19.98)"/></g></svg>